<svg width="53" height="53" viewBox="0 0 53 53" fill="none" xmlns="http://www.w3.org/2000/svg">
<path d="M49.8127 16.8013C50.8683 11.5885 47.1692 6.68693 42.0093 6.13243C39.3126 -0.233886 30.608 -1.30268 26.5017 4.42882C22.397 -1.30049 13.6921 -0.236914 10.9941 6.13243C5.83105 6.68734 2.13584 11.592 3.19065 16.8013C-0.655248 20.0241 -1.0528 25.7677 2.18064 29.492C-3.1764 36.7063 1.91529 47.2212 11.157 47.2212C14.108 53.3775 22.5334 54.1076 26.5016 48.5689C30.473 54.1122 38.8981 53.3716 41.8462 47.2212C51.0648 47.2417 56.181 36.7083 50.8225 29.492C54.0603 25.763 53.6538 20.0201 49.8127 16.8013ZM19.0169 48.9222C14.3479 48.9222 11.6538 43.4364 14.6962 39.7549C15.2841 39.0435 15.1839 37.9905 14.4726 37.4026C13.7612 36.8149 12.7082 36.915 12.1204 37.6263C10.7157 39.326 9.96798 41.5272 10.0861 43.7822C3.75078 43.1088 0.928994 35.5341 5.11699 30.8644C5.16283 30.9162 6.7336 28.6707 10.085 28.3138C10.0299 29.3961 10.1713 30.4902 10.5181 31.5511C10.7485 32.2558 11.4027 32.7031 12.1059 32.7031C13.238 32.7031 14.0481 31.5949 13.6943 30.5127C12.7346 27.5768 14.3423 24.4073 17.2782 23.4477C18.1553 23.1609 18.6338 22.2175 18.3471 21.3404C18.0603 20.4632 17.1173 19.9843 16.2398 20.2715C15.8574 20.3964 15.4882 20.5472 15.1316 20.7185C14.4659 19.0139 14.9252 17.0002 16.4095 15.7703C17.12 15.1814 17.2187 14.1282 16.6299 13.4177C16.0412 12.7072 14.9878 12.6086 14.2773 13.1972C11.3836 15.5952 10.714 19.626 12.3963 22.7596C11.2693 24.0047 11.0076 24.9277 10.9134 24.9277C8.46111 24.9277 6.19194 25.726 4.35134 27.0759C2.30083 24.5087 2.88489 20.6399 5.77873 18.8352C6.44538 18.4195 6.73235 17.5954 6.46805 16.8555C5.24063 13.4183 7.55574 9.37557 11.9875 9.37557C12.7428 9.37557 13.4075 8.86712 13.6021 8.13259C14.2513 5.68131 16.4779 3.96935 19.0168 3.96935C22.1056 3.96935 24.6186 6.48225 24.6186 9.57116V43.3204C24.6186 46.4093 22.1057 48.9222 19.0169 48.9222ZM48.2272 27.076C46.2345 25.6146 43.8179 24.8886 41.6328 24.9294C41.2542 24.1357 40.7868 23.4274 40.1824 22.7596C41.8633 19.6285 41.1976 15.5973 38.3014 13.1972C37.5905 12.6085 36.5374 12.7072 35.9488 13.4177C35.36 14.1283 35.4588 15.1815 36.1692 15.7703C37.6535 17.0001 38.1129 19.0139 37.4471 20.7185C37.0904 20.5472 36.7213 20.3964 36.3389 20.2715C35.4617 19.9845 34.5183 20.4633 34.2316 21.3404C33.9448 22.2174 34.4234 23.1609 35.3005 23.4477C38.2364 24.4073 39.8442 27.5768 38.8844 30.5127C38.5976 31.3898 39.0762 32.3332 39.9533 32.62C40.8256 32.9052 41.7724 32.4327 42.0606 31.5511C42.4074 30.4901 42.5489 29.396 42.4936 28.3137C46.4196 28.7319 49.4438 32.0703 49.4438 36.0478C49.4438 40.0574 46.3941 43.3675 42.4926 43.782C42.6106 41.5358 41.8686 39.3323 40.4584 37.6261C39.8707 36.9146 38.8175 36.8147 38.1062 37.4024C37.3949 37.9903 37.2947 39.0434 37.8826 39.7547C40.9194 43.4295 38.2332 48.922 33.5619 48.922C30.4731 48.922 27.9601 46.4091 27.9601 43.3202V9.57116C27.9601 6.48236 30.473 3.96935 33.5619 3.96935C36.1008 3.96935 38.3274 5.68141 38.9766 8.13259C39.1759 8.88509 39.8658 9.40199 40.6466 9.37474C44.5601 9.23084 47.4447 13.1199 46.1106 16.8556C45.8463 17.5955 46.1333 18.4196 46.8 18.8353C49.6967 20.6417 50.2755 24.5119 48.2272 27.076Z" fill="url(#paint0_linear)"/>
<defs>
<linearGradient id="paint0_linear" x1="0" y1="0.68457" x2="63.1116" y2="21.183" gradientUnits="userSpaceOnUse">
<stop stop-color="#5123F7"/>
<stop offset="1" stop-color="#18C9FD"/>
</linearGradient>
</defs>
</svg>
