<svg width="60" height="60" viewBox="0 0 60 60" fill="none" xmlns="http://www.w3.org/2000/svg">
<path d="M59.7034 34.1071C59.703 34.0591 59.7002 34.0112 59.6939 33.9633C59.6934 33.9601 59.6927 33.957 59.6922 33.9538C59.6863 33.9109 59.6773 33.8684 59.6666 33.8259C59.6635 33.814 59.6601 33.8025 59.6568 33.7908C59.647 33.7566 59.6353 33.7227 59.6222 33.6891C59.6176 33.6776 59.6135 33.6657 59.6086 33.6544C59.5905 33.6124 59.5707 33.5711 59.5474 33.5305C59.5467 33.5293 59.546 33.528 59.5453 33.5269C59.522 33.4866 59.4961 33.4488 59.4689 33.4124C59.4615 33.4024 59.4533 33.3929 59.4455 33.3833C59.423 33.3551 59.3995 33.3281 59.3748 33.3023C59.3663 33.2935 59.3579 33.2848 59.3492 33.2763C59.3179 33.2456 59.2852 33.2167 59.251 33.19C59.2486 33.1881 59.2463 33.1859 59.2439 33.184C59.2055 33.1547 59.1656 33.1282 59.1242 33.1039C59.1212 33.1022 59.1185 33.0998 59.1154 33.0981L45.4401 25.2032V9.41205C45.4401 9.40865 45.4395 9.40549 45.4394 9.40209C45.439 9.35393 45.4361 9.30576 45.4297 9.2576C45.4294 9.25514 45.4288 9.25279 45.4285 9.25045C45.4225 9.20662 45.4133 9.16326 45.4022 9.1199C45.3994 9.10877 45.3961 9.09764 45.393 9.0865C45.3829 9.05147 45.3709 9.01666 45.3574 8.98221C45.3532 8.97143 45.3494 8.96041 45.3448 8.94986C45.3264 8.90709 45.3064 8.86479 45.2824 8.82342C45.2587 8.78217 45.2322 8.74373 45.2044 8.70646C45.1974 8.69697 45.1895 8.68795 45.1821 8.67869C45.1593 8.64998 45.1354 8.62256 45.1103 8.59654C45.1021 8.58799 45.0938 8.57932 45.0853 8.571C45.0539 8.54017 45.0211 8.51111 44.9869 8.48428C44.9846 8.4824 44.9823 8.48029 44.98 8.47842C44.9415 8.449 44.9015 8.42252 44.86 8.39814C44.8571 8.39639 44.8545 8.39416 44.8515 8.39252L30.5881 0.15772C30.2239 -0.0525149 29.7751 -0.052632 29.4107 0.15772L15.1477 8.3924C15.1449 8.39404 15.1425 8.39603 15.1397 8.39767C15.098 8.42217 15.0577 8.44877 15.0189 8.47853C15.017 8.47994 15.0154 8.48158 15.0135 8.4831C14.9787 8.51017 14.9454 8.53982 14.9135 8.571C14.9052 8.5792 14.897 8.58764 14.8889 8.59607C14.8638 8.62221 14.8399 8.64963 14.8171 8.67834C14.8097 8.6876 14.8019 8.69674 14.7947 8.70635C14.7669 8.74349 14.7406 8.78205 14.7168 8.82318C14.693 8.86443 14.6728 8.9065 14.6545 8.94916C14.6499 8.96018 14.6459 8.97166 14.6414 8.98279C14.6281 9.01678 14.6163 9.051 14.6064 9.08557C14.6031 9.09693 14.5998 9.10842 14.5968 9.1199C14.5859 9.16268 14.5769 9.20569 14.5709 9.24893C14.5705 9.25186 14.5697 9.25455 14.5694 9.25748C14.563 9.30541 14.5602 9.35358 14.5599 9.40151C14.5599 9.4049 14.5592 9.4083 14.5592 9.4117V25.2027L0.883557 33.0977C0.880627 33.0994 0.878166 33.1016 0.875354 33.1032C0.833752 33.1276 0.793439 33.1542 0.754885 33.1839C0.75301 33.1853 0.751252 33.187 0.749377 33.1884C0.714572 33.2155 0.681408 33.245 0.649533 33.2764C0.641095 33.2846 0.633009 33.2932 0.624806 33.3016C0.599845 33.3277 0.575939 33.355 0.553087 33.3837C0.545587 33.393 0.537618 33.4023 0.53047 33.4119C0.503048 33.4486 0.477032 33.4867 0.453477 33.5273C0.453126 33.5279 0.452657 33.5285 0.452305 33.5292C0.428751 33.5702 0.408594 33.6119 0.390547 33.6544C0.385743 33.6656 0.381641 33.6773 0.377071 33.6888C0.363946 33.7225 0.352227 33.7566 0.342266 33.7908C0.338867 33.8024 0.335586 33.814 0.332539 33.8257C0.321641 33.8682 0.312734 33.9109 0.306758 33.9539C0.306289 33.957 0.305586 33.96 0.305117 33.9632C0.298789 34.0111 0.295977 34.0591 0.295625 34.1072C0.295625 34.1106 0.294922 34.1139 0.294922 34.1173V50.5879H0.295039C0.295039 51.0086 0.519454 51.3972 0.883674 51.6076L15.1479 59.8421C15.1507 59.8438 15.1539 59.8448 15.1567 59.8465C15.1987 59.8703 15.2417 59.8918 15.2865 59.9104C15.2892 59.9115 15.2919 59.9123 15.2946 59.9134C15.3351 59.9298 15.3767 59.9435 15.4192 59.9555C15.4308 59.9587 15.4425 59.9615 15.4541 59.9644C15.4888 59.9729 15.5242 59.9798 15.5601 59.9852C15.5721 59.9871 15.5842 59.9893 15.5964 59.9907C15.6423 59.9961 15.689 59.9997 15.7363 59.9997C15.7837 59.9997 15.8303 59.9961 15.8762 59.9907C15.8884 59.9893 15.9005 59.987 15.9126 59.9852C15.9484 59.9798 15.9837 59.973 16.0184 59.9644C16.0301 59.9614 16.0418 59.9586 16.0535 59.9553C16.0958 59.9436 16.1372 59.9298 16.1774 59.9135C16.1803 59.9123 16.1833 59.9115 16.1862 59.9102C16.231 59.8917 16.274 59.8701 16.3156 59.8465C16.3185 59.8448 16.3217 59.8437 16.3247 59.842L29.999 51.9472L43.6733 59.842C43.6764 59.8438 43.6795 59.8448 43.6826 59.8466C43.7243 59.8703 43.7672 59.8917 43.8119 59.9102C43.8149 59.9115 43.8181 59.9123 43.8211 59.9136C43.8612 59.9299 43.9024 59.9435 43.9446 59.9553C43.9563 59.9586 43.9682 59.9614 43.9799 59.9644C44.0145 59.9729 44.0499 59.9798 44.0856 59.9852C44.0978 59.9871 44.1099 59.9893 44.1221 59.9907C44.168 59.9961 44.2145 59.9997 44.262 59.9997C44.3094 59.9997 44.356 59.9961 44.4019 59.9907C44.4141 59.9893 44.4262 59.987 44.4383 59.9852C44.4741 59.9798 44.5095 59.973 44.544 59.9644C44.5558 59.9614 44.5676 59.9586 44.5793 59.9553C44.6215 59.9436 44.6626 59.9299 44.7028 59.9136C44.7059 59.9124 44.709 59.9115 44.7121 59.9102C44.7567 59.8917 44.7996 59.8701 44.8414 59.8466C44.8444 59.8448 44.8476 59.8438 44.8506 59.842L59.1148 51.6074C59.4792 51.3972 59.7036 51.0085 59.7036 50.5878V34.1175C59.7041 34.1139 59.7034 34.1106 59.7034 34.1071ZM49.0529 30.0077L37.1444 36.883L32.3541 34.1173L44.2623 27.2422L49.0529 30.0077ZM43.0851 25.203L31.1769 32.0781V18.3277L43.0851 11.4516V25.203ZM29.9994 2.53687L34.7897 5.30251L22.8811 12.1779L18.0911 9.41205L29.9994 2.53687ZM15.7363 27.2423L20.526 30.0076L8.61738 36.8828L3.8272 34.1174L15.7363 27.2423ZM14.559 56.7835L2.64958 49.9083V36.1567L7.72218 39.0851C7.87933 39.2488 8.07679 39.3607 8.28995 39.4129L14.559 43.0321V56.7835ZM15.7364 40.9927L10.9724 38.2424L22.8807 31.3671L27.6446 34.1175L15.7364 40.9927ZM28.822 49.9083L16.9138 56.7834V43.032L28.822 36.1567V49.9083ZM28.822 32.0782L16.9138 25.2031V11.4515L21.9833 14.3788C22.1412 14.5442 22.3403 14.6569 22.5552 14.7091L28.8221 18.3277V32.0782H28.822ZM25.236 13.5378L37.1444 6.662L41.9077 9.41205L29.9995 16.2883L25.236 13.5378ZM43.0849 56.7833L31.1769 49.9083V36.1567L36.2494 39.0852C36.406 39.2485 36.6033 39.36 36.8161 39.4124L43.0851 43.0318V56.7833H43.0849ZM44.2624 40.9927L39.4992 38.2426L51.4076 31.3672L56.1716 34.1175L44.2624 40.9927ZM57.3492 49.9083L45.4398 56.7835V43.032L57.3492 36.1567V49.9083Z" fill="url(#paint0_linear)"/>
<defs>
<linearGradient id="paint0_linear" x1="0.294922" y1="0" x2="71.5112" y2="22.3113" gradientUnits="userSpaceOnUse">
<stop stop-color="#5123F7"/>
<stop offset="1" stop-color="#18C9FD"/>
</linearGradient>
</defs>
</svg>
