<svg width="60" height="60" viewBox="0 0 60 60" fill="none" xmlns="http://www.w3.org/2000/svg">
<g clip-path="url(#clip0)">
<path d="M15.8326 22.3889L2.00059 8.55695C1.54286 8.09957 0.800946 8.09945 0.343212 8.55695C-0.114404 9.01456 -0.114404 9.75659 0.343212 10.2143L13.8314 23.7022L13.829 25.3172C13.8281 25.9644 14.352 26.4899 14.9991 26.4908C14.9997 26.4908 15.0003 26.4908 15.0009 26.4908C15.6473 26.4908 16.1718 25.9672 16.1728 25.3207L16.1758 23.2193C16.1763 22.9079 16.0528 22.6091 15.8326 22.3889Z" fill="url(#paint0_linear)"/>
<path d="M26.469 13.8273C26.4685 13.8273 26.4679 13.8273 26.4673 13.8273L23.7022 13.8311L10.2145 0.343124C9.75684 -0.114375 9.01481 -0.114375 8.55708 0.343124C8.09946 0.800741 8.09946 1.54277 8.55708 2.0005L22.389 15.8324C22.6089 16.0521 22.9069 16.1756 23.2177 16.1756C23.2181 16.1756 23.2189 16.1756 23.2193 16.1756L26.4707 16.171C27.1179 16.1701 27.6419 15.6447 27.6409 14.9975C27.64 14.3508 27.1156 13.8273 26.469 13.8273Z" fill="url(#paint1_linear)"/>
<path d="M51.4428 0.343359C51.2248 0.12539 50.9225 0 50.6143 0C50.3061 0 50.0037 0.125273 49.7857 0.343359C49.5678 0.561444 49.4424 0.86367 49.4424 1.17187C49.4424 1.48008 49.5678 1.78242 49.7857 2.00027C50.0037 2.21836 50.3061 2.34375 50.6143 2.34375C50.9225 2.34375 51.2248 2.21836 51.4428 2.00027C51.6607 1.78242 51.7861 1.48008 51.7861 1.17187C51.7861 0.86367 51.6607 0.561327 51.4428 0.343359Z" fill="url(#paint2_linear)"/>
<path d="M48.0103 3.77525C47.5527 3.31775 46.8106 3.31775 46.353 3.77525L36.2971 13.8312L34.682 13.8289C34.6762 13.8289 34.6708 13.8289 34.6652 13.8289C31.5649 13.8289 28.6506 15.0359 26.4579 17.2285L25.4047 18.2819C24.9471 18.7396 24.9471 19.4815 25.4047 19.9392C25.6336 20.168 25.9335 20.2825 26.2334 20.2825C26.5332 20.2825 26.8332 20.168 27.062 19.9392L28.1153 18.8859C29.8654 17.1358 32.1909 16.1727 34.6653 16.1727C34.6698 16.1727 34.6744 16.1727 34.6787 16.1727L36.7801 16.1757C36.7807 16.1757 36.7812 16.1757 36.7817 16.1757C37.0925 16.1757 37.3907 16.0521 37.6104 15.8324L48.0103 5.43263C48.4679 4.97502 48.4679 4.23299 48.0103 3.77525Z" fill="url(#paint3_linear)"/>
<path d="M59.6567 8.55699C59.1992 8.09949 58.457 8.09949 57.9994 8.55699L44.1675 22.3891C43.9474 22.6093 43.8238 22.908 43.8242 23.2195L43.8289 26.4708C43.8298 27.1175 44.3543 27.6409 45.0008 27.6409C45.0014 27.6409 45.002 27.6409 45.0025 27.6409C45.6498 27.64 46.1737 27.1147 46.1728 26.4673L46.1688 23.7023L59.6567 10.2144C60.1143 9.75676 60.1143 9.01473 59.6567 8.55699Z" fill="url(#paint4_linear)"/>
<path d="M59.6563 49.7853L46.1683 36.2973L46.1706 34.6822C46.1729 33.1425 45.8748 31.6409 45.2849 30.2188C45.037 29.6209 44.3513 29.3374 43.7535 29.5853C43.1556 29.8333 42.872 30.5189 43.12 31.1167C43.5907 32.2517 43.8285 33.4501 43.8268 34.6788L43.8237 36.7802C43.8232 37.0916 43.9468 37.3904 44.167 37.6106L57.999 51.4427C58.2279 51.6715 58.5278 51.7859 58.8277 51.7859C59.1276 51.7859 59.4276 51.6715 59.6563 51.4427C60.1139 50.985 60.114 50.2429 59.6563 49.7853Z" fill="url(#paint5_linear)"/>
<path d="M51.4433 57.9993L37.6112 44.1675C37.3914 43.9477 37.0934 43.8242 36.7826 43.8242C36.7821 43.8242 36.7814 43.8242 36.781 43.8242L33.5296 43.8288C32.8824 43.8297 32.3584 44.3551 32.3594 45.0023C32.3603 45.6491 32.8847 46.1725 33.5312 46.1725C33.5318 46.1725 33.5324 46.1725 33.533 46.1725L36.298 46.1687L49.7861 59.6567C50.0149 59.8854 50.3148 59.9999 50.6147 59.9999C50.9146 59.9999 51.2146 59.8854 51.4433 59.6567C51.9009 59.1991 51.9009 58.4571 51.4433 57.9993Z" fill="url(#paint6_linear)"/>
<path d="M10.2143 57.9996C9.99629 57.7815 9.69394 57.6562 9.38574 57.6562C9.07754 57.6562 8.77519 57.7815 8.55723 57.9996C8.33926 58.2176 8.21387 58.5199 8.21387 58.8281C8.21387 59.1363 8.33926 59.4387 8.55723 59.6565C8.77519 59.8745 9.07754 60 9.38574 60C9.69394 60 9.99629 59.8746 10.2143 59.6565C10.4334 59.4387 10.5576 59.1363 10.5576 58.8281C10.5576 58.5199 10.4334 58.2176 10.2143 57.9996Z" fill="url(#paint7_linear)"/>
<path d="M41.9099 29.7339C41.6441 29.4681 41.3436 29.2581 41.0234 29.1021C41.2974 28.6146 41.444 28.063 41.444 27.4886C41.444 26.6067 41.1006 25.7776 40.477 25.154C40.195 24.872 39.8742 24.6518 39.5317 24.4934C40.1227 23.2646 39.9103 21.7429 38.8929 20.7253C37.8756 19.7083 36.3546 19.4956 35.1259 20.086C34.9648 19.7392 34.7427 19.4195 34.4643 19.1411C33.1769 17.8539 31.0825 17.8541 29.7952 19.1411L25.1165 23.8199C25.0272 22.8715 24.5377 21.9689 23.7057 21.3864C22.9626 20.8661 22.0622 20.6711 21.1704 20.8377C20.2786 21.0044 19.5094 21.511 19.0041 22.2644L15.794 27.0515C14.5041 28.9751 13.824 31.2162 13.8273 33.5325L13.8312 36.2974L0.343212 49.7856C-0.114404 50.2432 -0.114404 50.9852 0.343212 51.4429C0.571962 51.6717 0.871961 51.7862 1.17184 51.7862C1.47173 51.7862 1.77173 51.6717 2.00047 51.4429L15.8324 37.611C16.0525 37.3908 16.1762 37.0919 16.1757 36.7806L16.171 33.5293C16.1684 31.6808 16.7111 29.8922 17.7407 28.3569L20.9507 23.5698C21.1024 23.3438 21.3332 23.1918 21.6008 23.1419C21.8682 23.0919 22.1385 23.1503 22.3614 23.3064C22.7935 23.609 22.9177 24.1992 22.6443 24.6503L21.3899 26.7194C20.9943 27.3719 21.143 28.1874 21.7434 28.6584C22.3437 29.1295 23.1713 29.0796 23.7109 28.5401L31.4525 20.7985C31.8259 20.4249 32.4335 20.425 32.807 20.7985C32.9878 20.9794 33.0876 21.2199 33.0876 21.4757C33.0876 21.6928 33.0151 21.8984 32.8828 22.0664L28.3015 26.6584C27.8439 27.116 27.8439 27.8581 28.3015 28.3158C28.7591 28.7733 29.5012 28.7733 29.9589 28.3158L35.8813 22.3827C36.2548 22.0092 36.8624 22.0092 37.2358 22.3826C37.6092 22.7562 37.6092 23.3637 37.2358 23.7372L31.3081 29.665C30.8505 30.1226 30.8505 30.8646 31.3081 31.3224C31.5369 31.5511 31.8368 31.6656 32.1367 31.6656C32.4366 31.6656 32.7366 31.5511 32.9653 31.3224L37.5521 26.7355C37.9276 26.4407 38.4741 26.4654 38.8199 26.8113C39.0008 26.9923 39.1004 27.2327 39.1004 27.4886C39.1004 27.7444 39.0008 27.9847 38.8199 28.1657L34.3144 32.6712C33.8568 33.1288 33.8568 33.8708 34.3144 34.3286C34.5433 34.5573 34.8432 34.6718 35.143 34.6718C35.4429 34.6718 35.7429 34.5573 35.9717 34.3286L38.9846 31.3157C39.3601 31.0202 39.9068 31.0451 40.2529 31.3913C40.4338 31.5721 40.5334 31.8127 40.5334 32.0685C40.5334 32.3243 40.4338 32.5648 40.2529 32.7456L31.8845 41.1141C30.1344 42.8641 27.8089 43.8272 25.3345 43.8272C25.33 43.8272 25.3254 43.8272 25.3211 43.8272L23.2197 43.8242C23.2191 43.8242 23.2186 43.8242 23.2181 43.8242C22.9073 43.8242 22.6091 43.9478 22.3894 44.1675L11.5013 55.0556C11.0437 55.5132 11.0437 56.2552 11.5013 56.713C11.7302 56.9417 12.0301 57.0562 12.3299 57.0562C12.6298 57.0562 12.9298 56.9417 13.1586 56.713L23.7027 46.1687L25.3178 46.171C25.3236 46.171 25.3289 46.171 25.3346 46.171C28.4349 46.171 31.3492 44.964 33.5419 42.7714L41.9099 34.403C43.1971 33.1158 43.1971 31.0212 41.9099 29.7339Z" fill="url(#paint8_linear)"/>
</g>
<defs>
<linearGradient id="paint0_linear" x1="0" y1="8.21387" x2="19.7455" y2="13.7432" gradientUnits="userSpaceOnUse">
<stop stop-color="#5123F7"/>
<stop offset="1" stop-color="#18C9FD"/>
</linearGradient>
<linearGradient id="paint1_linear" x1="8.21387" y1="0" x2="30.5607" y2="8.49197" gradientUnits="userSpaceOnUse">
<stop stop-color="#5123F7"/>
<stop offset="1" stop-color="#18C9FD"/>
</linearGradient>
<linearGradient id="paint2_linear" x1="49.4424" y1="0" x2="52.2469" y2="0.887375" gradientUnits="userSpaceOnUse">
<stop stop-color="#5123F7"/>
<stop offset="1" stop-color="#18C9FD"/>
</linearGradient>
<linearGradient id="paint3_linear" x1="25.0615" y1="3.43213" x2="50.7998" y2="14.6891" gradientUnits="userSpaceOnUse">
<stop stop-color="#5123F7"/>
<stop offset="1" stop-color="#18C9FD"/>
</linearGradient>
<linearGradient id="paint4_linear" x1="43.8242" y1="8.21387" x2="63.736" y2="13.4596" gradientUnits="userSpaceOnUse">
<stop stop-color="#5123F7"/>
<stop offset="1" stop-color="#18C9FD"/>
</linearGradient>
<linearGradient id="paint5_linear" x1="43.0303" y1="29.4956" x2="64.1437" y2="34.5813" gradientUnits="userSpaceOnUse">
<stop stop-color="#5123F7"/>
<stop offset="1" stop-color="#18C9FD"/>
</linearGradient>
<linearGradient id="paint6_linear" x1="32.3594" y1="43.8242" x2="54.7064" y2="52.3162" gradientUnits="userSpaceOnUse">
<stop stop-color="#5123F7"/>
<stop offset="1" stop-color="#18C9FD"/>
</linearGradient>
<linearGradient id="paint7_linear" x1="8.21387" y1="57.6563" x2="11.0184" y2="58.5436" gradientUnits="userSpaceOnUse">
<stop stop-color="#5123F7"/>
<stop offset="1" stop-color="#18C9FD"/>
</linearGradient>
<linearGradient id="paint8_linear" x1="0" y1="18.1758" x2="50.3157" y2="35.7317" gradientUnits="userSpaceOnUse">
<stop stop-color="#5123F7"/>
<stop offset="1" stop-color="#18C9FD"/>
</linearGradient>
<clipPath id="clip0">
<rect width="60" height="60" fill="white"/>
</clipPath>
</defs>
</svg>
