<svg width="13" height="9" viewBox="0 0 13 9" fill="none" xmlns="http://www.w3.org/2000/svg">
<path d="M11.8242 7.46139L11.4639 7.82126C11.3505 7.93365 11.1996 7.99556 11.0383 7.99556C10.8772 7.99556 10.7261 7.93365 10.6127 7.82126L6.50246 3.74426L2.38744 7.82579C2.27422 7.93817 2.12317 8 1.96202 8C1.80086 8 1.64972 7.93817 1.53641 7.82579L1.176 7.46813C0.941333 7.23555 0.941333 6.8567 1.176 6.62411L6.07542 1.74709C6.18864 1.63479 6.33951 1.55566 6.5021 1.55566H6.50398C6.66522 1.55566 6.8161 1.63488 6.92932 1.74709L11.8242 6.6109C11.9376 6.7232 11.9998 6.87736 12 7.03721C12 7.19714 11.9376 7.34918 11.8242 7.46139Z" fill="white" fill-opacity="0.9"/>
<path d="M11.8172 8.17504L11.8158 8.1764C11.608 8.38235 11.3303 8.49556 11.0383 8.49556C10.7466 8.49556 10.4687 8.38243 10.2608 8.1764L10.2606 8.17625L6.50245 4.4485L2.73969 8.18064C2.73967 8.18066 2.73965 8.18068 2.73963 8.1807C2.73961 8.18072 2.73958 8.18075 2.73955 8.18078C2.53155 8.38718 2.25347 8.5 1.96202 8.5C1.67054 8.5 1.39238 8.38716 1.1843 8.18078L1.18422 8.18069L0.824031 7.82326C0.823993 7.82322 0.823956 7.82319 0.823918 7.82315C0.823881 7.82311 0.823844 7.82308 0.823807 7.82304C0.392135 7.39496 0.392064 6.69758 0.823596 6.26942C0.823741 6.26927 0.823886 6.26913 0.824031 6.26899L5.72268 1.39272L5.72332 1.39209C5.90452 1.21237 6.1754 1.05566 6.5021 1.05566H6.50398C6.83004 1.05566 7.1008 1.21308 7.28128 1.39195L7.28174 1.39241L12.176 6.25562C12.1761 6.25567 12.1761 6.25572 12.1762 6.25577C12.3874 6.4651 12.4997 6.74834 12.5 7.03665V7.03721C12.5 7.32782 12.3862 7.60812 12.1769 7.81581C12.1765 7.81614 12.1762 7.81647 12.1759 7.8168L11.8172 8.17504Z" stroke="white" stroke-opacity="0.9"/>
</svg>
