<svg width="169" height="44" viewBox="0 0 169 44" fill="none" xmlns="http://www.w3.org/2000/svg">
<path d="M6.33965 5.29458L6.83961 5.29523C7.29403 5.29582 8.0787 5.3024 9.06545 5.31068C9.44048 5.31382 9.84469 5.31721 10.2711 5.32061C11.8212 5.33297 13.6681 5.34548 15.4823 5.34698C17.2971 5.34847 19.0763 5.33892 20.4919 5.30727C21.2001 5.29143 21.8135 5.27014 22.2932 5.24223C22.7883 5.21342 23.1009 5.17935 23.2345 5.14749C25.2667 4.66284 25.2794 1.85901 23.4867 1.26786L23.4866 1.26786C23.3869 1.23495 23.1074 1.19222 22.6225 1.15482C22.1599 1.11915 21.5623 1.09138 20.8682 1.07023C19.481 1.02795 17.7278 1.01266 15.9376 1.01116C14.1482 1.00966 12.3257 1.02193 10.8008 1.03459C10.3613 1.03824 9.94623 1.04193 9.56359 1.04532C8.62052 1.0537 7.87475 1.06032 7.44889 1.06032C7.10659 1.06032 6.73895 1.04795 6.35569 1.03505C5.54136 1.00765 4.65648 0.977875 3.79415 1.05934C2.521 1.17962 1.56244 1.52839 1.12237 2.27739L6.33965 5.29458ZM6.33965 5.29458L6.33896 5.79454M6.33965 5.29458L6.33896 5.79454M6.33896 5.79454L6.3276 14.0039L6.3269 14.5046H6.8276H6.84668H6.86577H6.88485H6.90394H6.92303H6.94211H6.9612H6.98029H6.99937H7.01846H7.03754H7.05663H7.07572H7.0948H7.11389H7.13297H7.15206H7.17115H7.19023H7.20932H7.2284H7.24749H7.26658H7.28566H7.30475H7.32383H7.34292H7.36201H7.38109H7.40018H7.41926H7.43835H7.45743H7.47652H7.49561H7.51469H7.53378H7.55286H7.57195H7.59103H7.61012H7.62921H7.64829H7.66738H7.68646H7.70555H7.72463H7.74372H7.76281H7.78189H7.80098H7.82006H7.83915H7.85823H7.87732H7.8964H7.91549H7.93458H7.95366H7.97275H7.99183H8.01092H8.03H8.04909H8.06817H8.08726H8.10634H8.12543H8.14452H8.1636H8.18268H8.20177H8.22086H8.23994H8.25903H8.27811H8.2972H8.31628H8.33537H8.35445H8.37354H8.39262H8.41171H8.43079H8.44988H8.46896H8.48805H8.50713H8.52622H8.5453H8.56439H8.58347H8.60256H8.62164H8.64073H8.65981H8.6789H8.69798H8.71707H8.73615H8.75524H8.77432H8.79341H8.81249H8.83158H8.85066H8.86975H8.88883H8.90792H8.927H8.94609H8.96517H8.98426H9.00334H9.02243H9.04151H9.0606H9.07968H9.09877H9.11785H9.13694H9.15602H9.1751H9.19419H9.21327H9.23236H9.25144H9.27053H9.28961H9.3087H9.32778H9.34687H9.36595H9.38504H9.40412H9.4232H9.44229H9.46137H9.48046H9.49954H9.51863H9.53771H9.5568H9.57588H9.59496H9.61405H9.63313H9.65222H9.6713H9.69039H9.70947H9.72856H9.74764H9.76672H9.78581H9.80489H9.82398H9.84306H9.86215H9.88123H9.90031H9.9194H9.93848H9.95757H9.97665H9.99574H10.0148H10.0339H10.053H10.0721H10.0912H10.1102H10.1293H10.1484H10.1675H10.1866H10.2057H10.2247H10.2438H10.2629H10.282H10.3011H10.3202H10.3393H10.3583H10.3774H10.3965H10.4156H10.4347H10.4538H10.4728H10.4919H10.511H10.5301H10.5492H10.5683H10.5873H10.6064H10.6255H10.6446H10.6637H10.6828H10.7018H10.7209H10.74H10.7591H10.7782H10.7973H10.8163H10.8354H10.8545H10.8736H10.8927H10.9118H10.9309H10.9499H10.969H10.9881H11.0072H11.0263H11.0454H11.0644H11.0835H11.1026H11.1217H11.1408H11.1599H11.1789H11.198H11.2171H11.2362H11.2553H11.2744H11.2934H11.3125H11.3316H11.3507H11.3698H11.3889H11.4079H11.427H11.4461H11.4652H11.4843H11.5034H11.5224H11.5415H11.5606H11.5797H11.5988H11.6179H11.6369H11.656H11.6751H11.6942H11.7133H11.7324H11.7514H11.7705H11.7896H11.8087H11.8278H11.8469H11.8659H11.885H11.9041H11.9232H11.9423H11.9614H11.9804H11.9995H12.0186H12.0377H12.0568H12.0759H12.0949H12.114H12.1331H12.1522H12.1713H12.1904H12.2094H12.2285H12.2476H12.2667H12.2858H12.3049H12.3239H12.343H12.3621H12.3812H12.4003H12.4194H12.4384H12.4575H12.4766H12.4957H12.5148H12.5339H12.5529H12.572H12.5911H12.6102H12.6293H12.6484H12.6674H12.6865H12.7056H12.7247H12.7438H12.7629H12.7819H12.801H12.8201H12.8392H12.8583H12.8774H12.8964H12.9155H12.9346H12.9537H12.9728H12.9919H13.0109H13.03H13.0491H13.0682H13.0873H13.1064H13.1254H13.1445H13.1636H13.1827H13.2018H13.2209H13.2399H13.259H13.2781H13.2972H13.3163H13.3354H13.3544H13.3735H13.3926H13.4117H13.4308H13.4499H13.4689H13.488H13.5071H13.5262H13.5453H13.5644H13.5834H13.6025H13.6216H13.6407H13.6598H13.6788H13.6979H13.717H13.7361H13.7552H13.7743H13.7933H13.8124H13.8315H13.8506H13.8697H13.8888H13.9078H13.9269H13.946H13.9651H13.9842H14.0033H14.0223H14.0414H14.0605H14.0796H14.0987H14.1178H14.1368H14.1559H14.175H14.1941H14.2132H14.2323H14.2513H14.2704H14.2895H14.3086H14.3277H14.3467H14.3658H14.3849H14.404H14.4231H14.4422H14.4612H14.4803H14.4994H14.5185H14.5376H14.5567H14.5757H14.5948H14.6139H14.633H14.6521H14.6712H14.6902H14.7093H14.7284H14.7475H14.7666H14.7857H14.8047H14.8238H14.8429H14.862H14.8811H14.9002H14.9192H14.9383H14.9574H14.9765H14.9956H15.0146H15.0337H15.0528H15.0719H15.091H15.1101H15.1291H15.1482H15.1673H15.1864H15.2055H15.2246H15.2436H15.2627H15.2818H15.3009H15.32H15.3391H15.3581H15.3772H15.3963H15.4154H15.4345H15.4535H15.4726H15.4917H15.5108H15.5299H15.549H15.568H15.5871H15.6062H15.6253H15.6444H15.6635H15.6825H15.7016H15.7207H15.7398H15.7589H15.778H15.797H15.8161H15.8352H15.8543H15.8734H15.8925H15.9115H15.9306H15.9497H15.9688H15.9879H16.0069H16.026H16.0451H16.0642H16.0833H16.1024H16.1214H16.1405H16.1596H16.1787H16.1978H16.2169H16.2359H16.255H16.2741H16.2932H16.3123H16.3314H16.3504H16.3695H16.3886H16.4077H16.4268H16.4459H16.4649H16.484H16.5031H16.5222H16.5413H16.5603H16.5794H16.5985C16.9774 14.5046 17.4285 14.4842 17.9004 14.4627C18.1821 14.45 18.4713 14.4368 18.7571 14.4275C19.5438 14.4019 20.3456 14.4025 21.0671 14.4975C21.7955 14.5935 22.3876 14.7795 22.7939 15.0838C23.1741 15.3685 23.4261 15.7809 23.4451 16.4442C23.4657 17.1646 23.23 17.605 22.8742 17.9038C22.4926 18.2242 21.9198 18.4254 21.2023 18.5334C20.4919 18.6402 19.6963 18.6478 18.9158 18.6261C18.6114 18.6176 18.3011 18.6041 18.0007 18.5911C17.5572 18.5718 17.1352 18.5535 16.7852 18.5535H16.7658H16.7464H16.7269H16.7075H16.6881H16.6687H16.6492H16.6298H16.6104H16.591H16.5715H16.5521H16.5327H16.5133H16.4938H16.4744H16.455H16.4356H16.4161H16.3967H16.3773H16.3579H16.3384H16.319H16.2996H16.2801H16.2607H16.2413H16.2219H16.2024H16.183H16.1636H16.1442H16.1247H16.1053H16.0859H16.0665H16.047H16.0276H16.0082H15.9888H15.9693H15.9499H15.9305H15.911H15.8916H15.8722H15.8528H15.8333H15.8139H15.7945H15.7751H15.7556H15.7362H15.7168H15.6974H15.6779H15.6585H15.6391H15.6197H15.6002H15.5808H15.5614H15.542H15.5225H15.5031H15.4837H15.4642H15.4448H15.4254H15.406H15.3865H15.3671H15.3477H15.3283H15.3088H15.2894H15.27H15.2506H15.2311H15.2117H15.1923H15.1729H15.1534H15.134H15.1146H15.0951H15.0757H15.0563H15.0369H15.0174H14.998H14.9786H14.9592H14.9397H14.9203H14.9009H14.8815H14.862H14.8426H14.8232H14.8038H14.7843H14.7649H14.7455H14.7261H14.7066H14.6872H14.6678H14.6483H14.6289H14.6095H14.5901H14.5706H14.5512H14.5318H14.5124H14.4929H14.4735H14.4541H14.4347H14.4152H14.3958H14.3764H14.357H14.3375H14.3181H14.2987H14.2792H14.2598H14.2404H14.221H14.2015H14.1821H14.1627H14.1433H14.1238H14.1044H14.085H14.0656H14.0461H14.0267H14.0073H13.9879H13.9684H13.949H13.9296H13.9101H13.8907H13.8713H13.8519H13.8324H13.813H13.7936H13.7742H13.7547H13.7353H13.7159H13.6965H13.677H13.6576H13.6382H13.6188H13.5993H13.5799H13.5605H13.5411H13.5216H13.5022H13.4828H13.4633H13.4439H13.4245H13.4051H13.3856H13.3662H13.3468H13.3274H13.3079H13.2885H13.2691H13.2497H13.2302H13.2108H13.1914H13.172H13.1525H13.1331H13.1137H13.0942H13.0748H13.0554H13.036H13.0165H12.9971H12.9777H12.9583H12.9388H12.9194H12.9H12.8806H12.8611H12.8417H12.8223H12.8029H12.7834H12.764H12.7446H12.7251H12.7057H12.6863H12.6669H12.6474H12.628H12.6086H12.5892H12.5697H12.5503H12.5309H12.5115H12.492H12.4726H12.4532H12.4338H12.4143H12.3949H12.3755H12.356H12.3366H12.3172H12.2978H12.2783H12.2589H12.2395H12.2201H12.2006H12.1812H12.1618H12.1424H12.1229H12.1035H12.0841H12.0647H12.0452H12.0258H12.0064H11.9869H11.9675H11.9481H11.9287H11.9092H11.8898H11.8704H11.851H11.8315H11.8121H11.7927H11.7733H11.7538H11.7344H11.715H11.6956H11.6761H11.6567H11.6373H11.6178H11.5984H11.579H11.5596H11.5401H11.5207H11.5013H11.4819H11.4624H11.443H11.4236H11.4042H11.3847H11.3653H11.3459H11.3265H11.307H11.2876H11.2682H11.2487H11.2293H11.2099H11.1905H11.171H11.1516H11.1322H11.1128H11.0933H11.0739H11.0545H11.0351H11.0156H10.9962H10.9768H10.9574H10.9379H10.9185H10.8991H10.8796H10.8602H10.8408H10.8214H10.8019H10.7825H10.7631H10.7437H10.7242H10.7048H10.6854H10.666H10.6465H10.6271H10.6077H10.5883H10.5688H10.5494H10.53H10.5105H10.4911H10.4717H10.4523H10.4328H10.4134H10.394H10.3746H10.3551H10.3357H10.3163H10.2969H10.2774H10.258H10.2386H10.2192H10.1997H10.1803H10.1609H10.1414H10.122H10.1026H10.0832H10.0637H10.0443H10.0249H10.0055H9.98603H9.96661H9.94718H9.92776H9.90833H9.8889H9.86948H9.85005H9.83062H9.8112H9.79177H9.77234H9.75292H9.73349H9.71406H9.69464H9.67521H9.65579H9.63636H9.61693H9.59751H9.57808H9.55865H9.53923H9.5198H9.50037H9.48095H9.46152H9.4421H9.42267H9.40324H9.38382H9.36439H9.34496H9.32554H9.30611H9.28668H9.26726H9.24783H9.22841H9.20898H9.18955H9.17013H9.1507H9.13127H9.11185H9.09242H9.073H9.05357H9.03414H9.01472H8.99529H8.97586H8.95644H8.93701H8.91758H8.89816H8.87873H8.8593H8.83988H8.82045H8.80103H8.7816H8.76217H8.74275H8.72332H8.70389H8.68447H8.66504H8.64561H8.62619H8.60676H8.58734H8.56791H8.54848H8.52906H8.50963H8.4902H8.47078H8.45135H8.43192H8.4125H8.39307H8.37364H8.35422H8.33479H8.31537H8.29594H8.27651H8.25709H8.23766H8.21823H8.19881H8.17938H8.15996H8.14053H8.1211H8.10168H8.08225H8.06282H8.0434H8.02397H8.00454H7.98512H7.96569H7.94626H7.92684H7.90741H7.88799H7.86856H7.84913H7.82971H7.81028H7.79085H7.77143H7.752H7.73257H7.71315H7.69372H7.6743H7.65487H7.63544H7.61602H7.59659H7.57716H7.55774H7.53831H7.51888H7.49946H7.48003H7.46061H7.44118H7.42175H7.40233H7.3829H7.36347H7.34405H7.32462H7.30519H7.28577H7.26634H7.24692H7.22749H7.20806H7.18864H7.16921H7.14978H7.13036H7.11093H7.0915H7.07208H7.05265H7.03323H7.0138H6.99437H6.97495H6.95552H6.93609H6.91667H6.89724H6.87781H6.85839H6.83896H6.33955L6.33896 19.0529L6.32774 28.5687L6.32715 29.0693H6.82774C7.42078 29.0693 8.51061 29.0616 9.85828 29.052C11.4974 29.0405 13.518 29.0262 15.4901 29.0198C17.2907 29.0139 19.0543 29.0146 20.4617 29.0298C21.8882 29.0452 22.9044 29.0755 23.2444 29.1224C25.5772 29.4439 25.9605 31.995 24.5207 33.0036L24.8076 33.4131M6.33896 5.79454L24.8076 33.4131M24.8076 33.4131L24.5207 33.0036C24.3043 33.1552 23.8758 33.291 23.2425 33.3857C22.6302 33.4773 21.8991 33.521 21.1391 33.5374C20.1505 33.5586 19.1715 33.534 18.3558 33.5135C17.8957 33.5019 17.4875 33.4916 17.1587 33.4916C14.7556 33.4916 12.7156 33.517 10.9618 33.5389C9.45833 33.5576 8.16517 33.5737 7.03388 33.569C4.58867 33.5587 3.10245 33.4456 2.1748 33.0921C1.73076 32.9229 1.43891 32.7063 1.2318 32.434C1.0204 32.156 0.869311 31.7831 0.769122 31.2566C0.591228 30.3216 0.594133 29.0445 0.598257 27.2316C0.59891 26.9443 0.599595 26.6435 0.599595 26.3285C0.599595 25.5017 0.584151 24.2297 0.565425 22.6875C0.533123 20.0272 0.491055 16.5625 0.501653 13.1907C0.509975 10.5429 0.551099 7.98471 0.655148 5.98006C0.707217 4.97688 0.774637 4.1208 0.86016 3.46495C0.90296 3.13675 0.9493 2.86657 0.998386 2.65712C1.04992 2.43722 1.09614 2.32204 1.12236 2.2774L24.8076 33.4131Z" fill="white" stroke="white"/>
<path d="M47.6937 13.4818L47.792 13.5263H47.8999H47.8999H48.3982L48.3999 13.0281C48.4069 11.059 48.4049 9.08867 48.4029 7.1201C48.4023 6.48943 48.4017 5.85893 48.4013 5.22873C48.4013 5.17193 48.4012 5.11492 48.4011 5.05772C48.3997 4.02578 48.3981 2.93401 48.6778 2.05726C48.8215 1.60694 49.03 1.2483 49.3235 0.992967C49.6117 0.74222 50.0189 0.558566 50.6221 0.518718C51.3033 0.473723 51.7749 0.585498 52.1083 0.770926C52.4379 0.954285 52.6763 1.2339 52.8506 1.60581C53.2155 2.384 53.267 3.48344 53.2646 4.66781V4.6688L53.2642 28.5698C53.2642 28.8677 53.271 29.1672 53.2777 29.4654C53.2971 30.3187 53.3161 31.161 53.1753 31.9238C53.0832 32.423 52.9277 32.8433 52.6838 33.1728C52.4458 33.4944 52.1054 33.7548 51.5935 33.9121C50.9373 34.1138 50.4425 34.1105 50.0688 34.0009C49.6993 33.8926 49.4028 33.6672 49.1619 33.3414C48.6624 32.6657 48.4291 31.5917 48.3862 30.4689L48.3589 29.7553L47.6977 30.025C47.3606 30.1625 47.0595 30.4317 46.7878 30.6973C46.6638 30.8184 46.5474 30.9373 46.4277 31.0595C46.2515 31.2394 46.0683 31.4265 45.8434 31.6388C45.1341 32.3087 44.1945 33.0412 42.7793 33.5249L42.941 33.998L42.7793 33.5249C39.3061 34.712 36.1587 33.9307 33.8463 31.8587C31.5206 29.7747 30.0045 26.3494 29.9204 22.2109C29.7841 15.5108 32.531 12.045 35.7738 10.6201C39.0752 9.16956 42.9822 9.78431 45.2324 11.4356C45.5273 11.6521 45.8555 11.9627 46.2084 12.2967C46.2782 12.3628 46.349 12.4298 46.4207 12.4972C46.6303 12.6941 46.8455 12.8917 47.0523 13.06C47.2546 13.2246 47.4744 13.3825 47.6937 13.4818ZM42.9265 30.0569C44.9673 29.6023 46.3701 28.1944 47.1871 26.4283C48.0003 24.6703 48.2482 22.5338 47.9924 20.522C47.7369 18.5128 46.9712 16.5712 45.6934 15.2307C44.3968 13.8705 42.5896 13.1522 40.3629 13.6073C38.3229 14.0241 36.8996 15.4313 36.0561 17.2055C35.2158 18.973 34.9318 21.1347 35.1628 23.1707C35.3934 25.2033 36.1447 27.1705 37.4421 28.515C38.7609 29.8817 40.6162 30.5717 42.9265 30.0569Z" fill="white" stroke="white"/>
<path d="M150.741 29.9908L150.59 29.8064H150.353H150.353H149.911L149.856 30.2446C149.682 31.6442 149.694 33.1595 149.739 34.6282C149.751 35.0103 149.765 35.3883 149.779 35.7607C149.819 36.8345 149.857 37.8619 149.835 38.8078C149.806 40.0882 149.667 41.1332 149.321 41.8699C149.152 42.2297 148.94 42.5018 148.679 42.6947C148.419 42.8863 148.085 43.019 147.64 43.062C146.89 43.1345 146.384 43.0379 146.037 42.8632C145.699 42.6931 145.465 42.4257 145.298 42.0585C145.127 41.6806 145.03 41.204 144.979 40.6431C144.929 40.0837 144.927 39.4756 144.927 38.8396C144.927 38.8396 144.927 38.8395 144.927 38.8394L144.928 14.9387V14.9387C144.928 14.7039 144.924 14.4631 144.92 14.2195C144.906 13.3274 144.89 12.3972 145.065 11.5821C145.173 11.076 145.347 10.6634 145.606 10.361C145.857 10.069 146.213 9.84871 146.754 9.76377L146.754 9.76377C147.496 9.64746 148.005 9.70954 148.363 9.85562C148.711 9.99803 148.961 10.2384 149.155 10.5704C149.355 10.9126 149.492 11.347 149.601 11.8576C149.68 12.2272 149.739 12.6091 149.801 13.0072C149.825 13.1637 149.85 13.3227 149.876 13.4844L150.077 14.7127L150.782 13.6869C153.27 10.0652 158.29 8.72788 162.419 10.7061L162.636 10.2552L162.419 10.7061C166.184 12.5095 168.198 17.0149 168.242 21.6838C168.286 26.3498 166.36 30.9496 162.524 32.9285C160.224 34.1154 158.027 34.2797 156.043 33.7139C154.051 33.1455 152.236 31.8286 150.741 29.9908ZM155.13 13.5912L155.253 14.0759L155.13 13.5912C153.115 14.1016 151.726 15.5347 150.916 17.3086C150.109 19.0759 149.861 21.2061 150.121 23.2053C150.38 25.2016 151.153 27.1226 152.45 28.4396C153.767 29.7761 155.599 30.4613 157.859 29.9879C159.87 29.5669 161.265 28.1391 162.087 26.3512C162.906 24.5684 163.177 22.39 162.937 20.3451C162.698 18.3043 161.942 16.334 160.637 15.0059C159.309 13.6535 157.445 13.005 155.13 13.5912Z" fill="white" stroke="white"/>
<path d="M83.3288 32.4007L83.7713 32.6334L83.3287 32.4007C82.9728 33.0777 82.1803 33.3943 81.0775 33.5018C80.3376 33.574 79.5813 33.5454 78.8685 33.5184C78.514 33.505 78.1703 33.492 77.8447 33.492C77.2903 33.492 76.3481 33.4982 75.2033 33.5057C73.7802 33.5151 72.0443 33.5266 70.3515 33.5307C68.8195 33.5344 67.3181 33.5322 66.1017 33.5173C64.8718 33.5022 63.9665 33.4742 63.6031 33.4307C62.4261 33.2897 61.7702 32.9244 61.3812 32.4032C60.9765 31.8611 60.7867 31.0555 60.7625 29.8706C60.6699 25.3351 60.7016 20.2062 60.7322 15.2451C60.747 12.8334 60.7617 10.4614 60.7617 8.21648C60.7617 7.8638 60.7523 7.47341 60.7423 7.05772C60.7256 6.36545 60.7073 5.60299 60.7278 4.82766C60.7608 3.58384 60.8959 2.49077 61.2322 1.85356C61.9797 0.437288 64.1215 0.0356126 65.3997 1.11172C66.0896 1.69251 66.3835 2.49466 66.4945 3.45406C66.5739 4.14087 66.5562 4.84607 66.538 5.57061C66.5342 5.72484 66.5303 5.87994 66.5273 6.03593H66.5219V6.53593V28.3756V28.8687L67.0149 28.8756C67.9668 28.8888 69.7687 28.8758 71.7855 28.8613C72.7036 28.8546 73.6662 28.8477 74.6134 28.8427C76.131 28.8348 77.6115 28.832 78.8152 28.8438C80.0322 28.8557 80.9323 28.8824 81.3124 28.9288C82.2756 29.0463 82.9965 29.514 83.3664 30.1229C83.7286 30.7191 83.7945 31.5149 83.3288 32.4007Z" fill="white" stroke="white"/>
<path d="M114.793 20.8433L114.809 20.8596C116.508 22.5785 122.372 28.5054 122.389 28.5223L122.504 28.6476C122.506 28.6509 123.466 29.781 126.454 30.0456V30.0561C126.459 30.0566 126.51 30.0594 126.604 30.0635C127.988 30.1282 129.712 29.5415 131.176 28.3758C132.625 27.2223 133.759 25.4977 133.956 23.2751H133.967C133.972 23.2099 133.979 23.1014 133.986 22.948C134.09 20.7212 133.399 18.9646 132.312 17.7077C131.02 16.2128 129.182 15.3783 127.46 15.2757C125.77 15.1749 124.565 15.3671 123.641 15.7671C123.644 15.8969 123.677 16.1706 123.878 16.4728C124.158 16.8929 124.363 16.9219 124.54 17.0672C124.716 17.2125 124.713 17.6762 124.432 17.9148C124.151 18.1533 123.771 18.3605 122.662 18.4094C121.71 18.4514 120.48 18.4501 119.86 18.4963C119.702 18.5332 119.541 18.5556 119.379 18.5633C118.336 18.7579 116.479 19.2285 116.197 19.0496C115.457 18.5792 117.011 15.3531 117.193 14.7328C117.354 14.1821 117.801 12.1878 118.191 10.7992C118.378 10.132 119.182 10.2781 119.676 10.4673C120 10.5915 120.263 10.9391 120.493 11.2275L120.573 11.3403C120.831 11.1954 121.1 11.0591 121.382 10.9322C123.067 10.1724 125.1 9.7925 127.773 9.95187C130.828 10.134 134.075 11.5991 136.342 14.2212C138.259 16.4401 139.484 19.4555 139.31 23.1776C139.303 23.3218 139.29 23.5077 139.27 23.7335L139.28 23.7344C138.938 27.5893 136.987 30.5678 134.496 32.5514C132.02 34.5228 128.948 35.5077 126.374 35.3873C126.29 35.3836 126.164 35.374 125.995 35.3591L125.994 35.3694C121.509 34.9721 119.142 32.821 118.611 32.2791L118.61 32.28C118.592 32.2621 112.515 26.1196 110.938 24.5246L110.922 24.5083C109.223 22.7894 103.359 16.8626 103.342 16.8456L103.227 16.7204C103.225 16.7171 102.264 15.5869 99.2772 15.3223V15.3118C99.2715 15.3114 99.2209 15.3086 99.1272 15.3044C97.7427 15.2398 96.0189 15.8264 94.5547 16.9921C93.1058 18.1457 91.9716 19.8702 91.7748 22.0929H91.7643C91.7585 22.1579 91.752 22.2666 91.7449 22.4199C91.6408 24.6468 92.3321 26.4033 93.4185 27.6603C94.7106 29.1551 96.549 29.9896 98.2709 30.0922C99.7922 30.183 100.921 30.0362 101.805 29.7141C101.805 29.7114 101.849 29.3477 101.57 28.9292C101.29 28.5091 101.086 28.48 100.909 28.3347C100.732 28.1894 100.736 27.7257 101.016 27.4872C101.297 27.2486 101.678 27.0414 102.786 26.9925C103.895 26.9437 105.38 26.9534 105.841 26.8787L105.843 26.8783C105.924 26.8585 106.006 26.8426 106.088 26.8304C107.04 26.616 108.273 26.0504 108.584 26.0692C109.869 26.1466 108.224 30.3585 108.042 30.979C107.792 31.8299 107.174 35.4715 105.773 34.9346C105.448 34.8104 105.186 34.4628 104.956 34.1744L104.937 34.1481C104.747 34.2486 104.551 34.3445 104.349 34.4357C102.664 35.1955 100.631 35.5754 97.9578 35.416C94.9034 35.2339 91.6557 33.7689 89.3894 31.1468C87.4715 28.9279 86.2472 25.9125 86.4212 22.1903C86.4279 22.0461 86.4415 21.8602 86.4615 21.6344L86.4511 21.6335C86.7927 17.7785 88.744 14.8 91.2353 12.8165C93.7114 10.845 96.783 9.86024 99.3569 9.98057C99.4414 9.9843 99.5674 9.9939 99.7358 10.0088L99.7367 9.99841C104.222 10.3957 106.589 12.5469 107.12 13.0887L107.121 13.0878C107.139 13.1058 113.217 19.2484 114.793 20.8433L114.793 20.8433Z" fill="url(#paint0_linear)"/>
<defs>
<linearGradient id="paint0_linear" x1="86.4048" y1="9.91602" x2="139.326" y2="9.91602" gradientUnits="userSpaceOnUse">
<stop stop-color="#FF2917"/>
<stop offset="1" stop-color="#FFC617"/>
</linearGradient>
</defs>
</svg>
