<svg width="169" height="43" viewBox="0 0 169 43" fill="none" xmlns="http://www.w3.org/2000/svg">
<path d="M6.8396 5.76475L6.33968 5.76411L6.33897 6.26403L6.3276 14.2442L6.32689 14.7449H6.8276H6.84668H6.86577H6.88486H6.90394H6.92303H6.94212H6.9612H6.98029H6.99937H7.01846H7.03755H7.05663H7.07572H7.09481H7.11389H7.13298H7.15206H7.17115H7.19024H7.20932H7.22841H7.24749H7.26658H7.28567H7.30475H7.32384H7.34292H7.36201H7.38109H7.40018H7.41927H7.43835H7.45744H7.47652H7.49561H7.5147H7.53378H7.55287H7.57195H7.59104H7.61012H7.62921H7.6483H7.66738H7.68647H7.70555H7.72464H7.74372H7.76281H7.78189H7.80098H7.82007H7.83915H7.85824H7.87732H7.89641H7.91549H7.93458H7.95366H7.97275H7.99184H8.01092H8.03001H8.04909H8.06818H8.08726H8.10635H8.12543H8.14452H8.1636H8.18269H8.20177H8.22086H8.23995H8.25903H8.27812H8.2972H8.31629H8.33537H8.35446H8.37354H8.39263H8.41171H8.4308H8.44988H8.46897H8.48805H8.50714H8.52622H8.54531H8.56439H8.58348H8.60256H8.62165H8.64073H8.65982H8.6789H8.69799H8.71707H8.73616H8.75524H8.77433H8.79341H8.8125H8.83158H8.85067H8.86975H8.88884H8.90792H8.92701H8.94609H8.96518H8.98426H9.00335H9.02243H9.04152H9.0606H9.07969H9.09877H9.11785H9.13694H9.15602H9.17511H9.19419H9.21328H9.23236H9.25145H9.27053H9.28962H9.3087H9.32779H9.34687H9.36596H9.38504H9.40412H9.42321H9.44229H9.46138H9.48046H9.49955H9.51863H9.53772H9.5568H9.57588H9.59497H9.61405H9.63314H9.65222H9.67131H9.69039H9.70948H9.72856H9.74764H9.76673H9.78581H9.8049H9.82398H9.84307H9.86215H9.88124H9.90032H9.9194H9.93849H9.95757H9.97666H9.99574H10.0148H10.0339H10.053H10.0721H10.0912H10.1102H10.1293H10.1484H10.1675H10.1866H10.2057H10.2248H10.2438H10.2629H10.282H10.3011H10.3202H10.3393H10.3583H10.3774H10.3965H10.4156H10.4347H10.4538H10.4728H10.4919H10.511H10.5301H10.5492H10.5683H10.5873H10.6064H10.6255H10.6446H10.6637H10.6828H10.7019H10.7209H10.74H10.7591H10.7782H10.7973H10.8164H10.8354H10.8545H10.8736H10.8927H10.9118H10.9309H10.9499H10.969H10.9881H11.0072H11.0263H11.0454H11.0644H11.0835H11.1026H11.1217H11.1408H11.1599H11.1789H11.198H11.2171H11.2362H11.2553H11.2744H11.2934H11.3125H11.3316H11.3507H11.3698H11.3889H11.4079H11.427H11.4461H11.4652H11.4843H11.5034H11.5225H11.5415H11.5606H11.5797H11.5988H11.6179H11.637H11.656H11.6751H11.6942H11.7133H11.7324H11.7515H11.7705H11.7896H11.8087H11.8278H11.8469H11.866H11.885H11.9041H11.9232H11.9423H11.9614H11.9805H11.9995H12.0186H12.0377H12.0568H12.0759H12.095H12.114H12.1331H12.1522H12.1713H12.1904H12.2095H12.2285H12.2476H12.2667H12.2858H12.3049H12.324H12.343H12.3621H12.3812H12.4003H12.4194H12.4385H12.4575H12.4766H12.4957H12.5148H12.5339H12.553H12.572H12.5911H12.6102H12.6293H12.6484H12.6675H12.6865H12.7056H12.7247H12.7438H12.7629H12.782H12.801H12.8201H12.8392H12.8583H12.8774H12.8965H12.9155H12.9346H12.9537H12.9728H12.9919H13.0109H13.03H13.0491H13.0682H13.0873H13.1064H13.1254H13.1445H13.1636H13.1827H13.2018H13.2209H13.2399H13.259H13.2781H13.2972H13.3163H13.3354H13.3544H13.3735H13.3926H13.4117H13.4308H13.4499H13.4689H13.488H13.5071H13.5262H13.5453H13.5644H13.5834H13.6025H13.6216H13.6407H13.6598H13.6789H13.6979H13.717H13.7361H13.7552H13.7743H13.7934H13.8124H13.8315H13.8506H13.8697H13.8888H13.9079H13.9269H13.946H13.9651H13.9842H14.0033H14.0223H14.0414H14.0605H14.0796H14.0987H14.1178H14.1368H14.1559H14.175H14.1941H14.2132H14.2323H14.2513H14.2704H14.2895H14.3086H14.3277H14.3468H14.3658H14.3849H14.404H14.4231H14.4422H14.4613H14.4803H14.4994H14.5185H14.5376H14.5567H14.5757H14.5948H14.6139H14.633H14.6521H14.6712H14.6902H14.7093H14.7284H14.7475H14.7666H14.7857H14.8047H14.8238H14.8429H14.862H14.8811H14.9002H14.9192H14.9383H14.9574H14.9765H14.9956H15.0147H15.0337H15.0528H15.0719H15.091H15.1101H15.1292H15.1482H15.1673H15.1864H15.2055H15.2246H15.2436H15.2627H15.2818H15.3009H15.32H15.3391H15.3581H15.3772H15.3963H15.4154H15.4345H15.4536H15.4726H15.4917H15.5108H15.5299H15.549H15.5681H15.5871H15.6062H15.6253H15.6444H15.6635H15.6825H15.7016H15.7207H15.7398H15.7589H15.778H15.797H15.8161H15.8352H15.8543H15.8734H15.8925H15.9115H15.9306H15.9497H15.9688H15.9879H16.007H16.026H16.0451H16.0642H16.0833H16.1024H16.1215H16.1405H16.1596H16.1787H16.1978H16.2169H16.2359H16.255H16.2741H16.2932H16.3123H16.3314H16.3504H16.3695H16.3886H16.4077H16.4268H16.4459H16.4649H16.484H16.5031H16.5222H16.5413H16.5604H16.5794H16.5985C16.9772 14.7449 17.4276 14.725 17.8992 14.7042C18.181 14.6918 18.4704 14.679 18.7566 14.67C19.5436 14.645 20.3463 14.6456 21.0689 14.7381C21.7988 14.8317 22.3925 15.013 22.7994 15.3091C23.179 15.5855 23.4264 15.9819 23.4451 16.6172C23.4655 17.3083 23.2339 17.7308 22.8795 18.0201C22.4977 18.3317 21.9236 18.5279 21.2043 18.6331C20.4927 18.7371 19.6961 18.7445 18.9154 18.7233C18.6105 18.7151 18.3 18.702 17.9995 18.6893C17.5564 18.6706 17.135 18.6528 16.7852 18.6528H16.7658H16.7464H16.727H16.7075H16.6881H16.6687H16.6493H16.6298H16.6104H16.591H16.5715H16.5521H16.5327H16.5133H16.4938H16.4744H16.455H16.4356H16.4161H16.3967H16.3773H16.3579H16.3384H16.319H16.2996H16.2802H16.2607H16.2413H16.2219H16.2024H16.183H16.1636H16.1442H16.1247H16.1053H16.0859H16.0665H16.047H16.0276H16.0082H15.9888H15.9693H15.9499H15.9305H15.9111H15.8916H15.8722H15.8528H15.8334H15.8139H15.7945H15.7751H15.7556H15.7362H15.7168H15.6974H15.6779H15.6585H15.6391H15.6197H15.6002H15.5808H15.5614H15.542H15.5225H15.5031H15.4837H15.4643H15.4448H15.4254H15.406H15.3866H15.3671H15.3477H15.3283H15.3088H15.2894H15.27H15.2506H15.2311H15.2117H15.1923H15.1729H15.1534H15.134H15.1146H15.0952H15.0757H15.0563H15.0369H15.0175H14.998H14.9786H14.9592H14.9397H14.9203H14.9009H14.8815H14.862H14.8426H14.8232H14.8038H14.7843H14.7649H14.7455H14.7261H14.7066H14.6872H14.6678H14.6484H14.6289H14.6095H14.5901H14.5707H14.5512H14.5318H14.5124H14.4929H14.4735H14.4541H14.4347H14.4152H14.3958H14.3764H14.357H14.3375H14.3181H14.2987H14.2793H14.2598H14.2404H14.221H14.2016H14.1821H14.1627H14.1433H14.1238H14.1044H14.085H14.0656H14.0461H14.0267H14.0073H13.9879H13.9684H13.949H13.9296H13.9102H13.8907H13.8713H13.8519H13.8325H13.813H13.7936H13.7742H13.7547H13.7353H13.7159H13.6965H13.677H13.6576H13.6382H13.6188H13.5993H13.5799H13.5605H13.5411H13.5216H13.5022H13.4828H13.4634H13.4439H13.4245H13.4051H13.3856H13.3662H13.3468H13.3274H13.3079H13.2885H13.2691H13.2497H13.2302H13.2108H13.1914H13.172H13.1525H13.1331H13.1137H13.0943H13.0748H13.0554H13.036H13.0165H12.9971H12.9777H12.9583H12.9388H12.9194H12.9H12.8806H12.8611H12.8417H12.8223H12.8029H12.7834H12.764H12.7446H12.7252H12.7057H12.6863H12.6669H12.6474H12.628H12.6086H12.5892H12.5697H12.5503H12.5309H12.5115H12.492H12.4726H12.4532H12.4338H12.4143H12.3949H12.3755H12.3561H12.3366H12.3172H12.2978H12.2783H12.2589H12.2395H12.2201H12.2006H12.1812H12.1618H12.1424H12.1229H12.1035H12.0841H12.0647H12.0452H12.0258H12.0064H11.987H11.9675H11.9481H11.9287H11.9092H11.8898H11.8704H11.851H11.8315H11.8121H11.7927H11.7733H11.7538H11.7344H11.715H11.6956H11.6761H11.6567H11.6373H11.6179H11.5984H11.579H11.5596H11.5401H11.5207H11.5013H11.4819H11.4624H11.443H11.4236H11.4042H11.3847H11.3653H11.3459H11.3265H11.307H11.2876H11.2682H11.2488H11.2293H11.2099H11.1905H11.171H11.1516H11.1322H11.1128H11.0933H11.0739H11.0545H11.0351H11.0156H10.9962H10.9768H10.9574H10.9379H10.9185H10.8991H10.8797H10.8602H10.8408H10.8214H10.8019H10.7825H10.7631H10.7437H10.7242H10.7048H10.6854H10.666H10.6465H10.6271H10.6077H10.5883H10.5688H10.5494H10.53H10.5106H10.4911H10.4717H10.4523H10.4328H10.4134H10.394H10.3746H10.3551H10.3357H10.3163H10.2969H10.2774H10.258H10.2386H10.2192H10.1997H10.1803H10.1609H10.1415H10.122H10.1026H10.0832H10.0637H10.0443H10.0249H10.0055H9.98604H9.96661H9.94719H9.92776H9.90833H9.88891H9.86948H9.85005H9.83063H9.8112H9.79178H9.77235H9.75292H9.7335H9.71407H9.69464H9.67522H9.65579H9.63636H9.61694H9.59751H9.57809H9.55866H9.53923H9.51981H9.50038H9.48095H9.46153H9.4421H9.42268H9.40325H9.38382H9.3644H9.34497H9.32554H9.30612H9.28669H9.26726H9.24784H9.22841H9.20898H9.18956H9.17013H9.15071H9.13128H9.11185H9.09243H9.073H9.05357H9.03415H9.01472H8.99529H8.97587H8.95644H8.93702H8.91759H8.89816H8.87874H8.85931H8.83988H8.82046H8.80103H8.7816H8.76218H8.74275H8.72332H8.7039H8.68447H8.66505H8.64562H8.62619H8.60677H8.58734H8.56791H8.54849H8.52906H8.50963H8.49021H8.47078H8.45136H8.43193H8.4125H8.39308H8.37365H8.35422H8.3348H8.31537H8.29594H8.27652H8.25709H8.23767H8.21824H8.19881H8.17939H8.15996H8.14053H8.12111H8.10168H8.08225H8.06283H8.0434H8.02398H8.00455H7.98512H7.9657H7.94627H7.92684H7.90742H7.88799H7.86856H7.84914H7.82971H7.81028H7.79086H7.77143H7.75201H7.73258H7.71315H7.69373H7.6743H7.65487H7.63545H7.61602H7.59659H7.57717H7.55774H7.53832H7.51889H7.49946H7.48004H7.46061H7.44118H7.42176H7.40233H7.3829H7.36348H7.34405H7.32463H7.3052H7.28577H7.26635H7.24692H7.22749H7.20807H7.18864H7.16921H7.14979H7.13036H7.11093H7.09151H7.07208H7.05266H7.03323H7.0138H6.99438H6.97495H6.95552H6.9361H6.91667H6.89724H6.87782H6.85839H6.83896H6.33957L6.33897 19.1522L6.32774 28.4023L6.32713 28.9029H6.82774C7.42081 28.9029 8.51058 28.8954 9.85821 28.8861C11.4973 28.8749 13.5178 28.861 15.49 28.8547C17.2907 28.8491 19.0544 28.8497 20.4618 28.8645C21.8879 28.8794 22.9052 28.9089 23.2463 28.9546C25.5977 29.2697 25.94 31.7353 24.5262 32.6982L24.7947 33.0924L24.5262 32.6982C24.3089 32.8461 23.8787 32.9785 23.2446 33.0707C22.6315 33.1599 21.8996 33.2024 21.1394 33.2183C20.1506 33.2389 19.1707 33.215 18.3546 33.195C17.8947 33.1838 17.4868 33.1738 17.1587 33.1738C14.7563 33.1738 12.7161 33.1985 10.9621 33.2198C9.45827 33.238 8.16485 33.2536 7.03383 33.249C4.58889 33.239 3.10027 33.1291 2.17044 32.7847C1.72468 32.6196 1.43331 32.4087 1.22761 32.1458C1.01815 31.878 0.86825 31.5189 0.768622 31.0099C0.591276 30.1039 0.594159 28.8656 0.598264 27.1027C0.598914 26.8235 0.599595 26.531 0.599595 26.2247C0.599595 25.4198 0.584142 24.1829 0.565409 22.6835C0.533107 20.098 0.491053 16.7318 0.501652 13.4538C0.509975 10.88 0.551097 8.39386 0.655109 6.44589C0.707161 5.47102 0.774535 4.63966 0.859919 4.00317C0.90265 3.68464 0.948847 3.42298 0.997649 3.22055C1.04897 3.00766 1.09451 2.89837 1.11918 2.85757C1.55691 2.13334 2.51552 1.79243 3.79285 1.67512C4.65604 1.59585 5.54257 1.62484 6.35736 1.65148C6.74035 1.664 7.10748 1.67601 7.4489 1.67601C7.87469 1.67601 8.62034 1.66958 9.56336 1.66144C9.94602 1.65814 10.3612 1.65455 10.8006 1.65101C12.3256 1.6387 14.1482 1.62677 15.9376 1.62823C17.7279 1.62969 19.4812 1.64455 20.8687 1.68565C21.5629 1.70622 22.1607 1.73322 22.6236 1.76791C23.1083 1.80425 23.3893 1.84586 23.4906 1.87834L23.4906 1.87835C25.2738 2.4499 25.2701 5.1496 23.2376 5.6208C23.1028 5.65206 22.7889 5.68521 22.2941 5.7132C21.8141 5.74035 21.2005 5.76105 20.4922 5.77645C19.0765 5.80722 17.2972 5.8165 15.4823 5.81505C13.668 5.8136 11.8211 5.80143 10.271 5.78942C9.84461 5.78612 9.44042 5.78282 9.06543 5.77976C8.07864 5.77172 7.29399 5.76532 6.8396 5.76475Z" fill="#212938" stroke="#212938"/>
<path d="M47.6985 13.7503L47.7947 13.7927H47.8999H47.9H48.3981L48.3999 13.2945C48.4069 11.3801 48.4049 9.46435 48.403 7.55043C48.4023 6.93768 48.4017 6.32512 48.4013 5.71284C48.4013 5.65807 48.4012 5.60311 48.4012 5.548C48.3997 4.54352 48.3982 3.48634 48.6766 2.63814C48.8191 2.20384 49.0259 1.85765 49.3182 1.61046C49.6061 1.36693 50.0148 1.18729 50.6212 1.14835C51.3046 1.10447 51.7786 1.21356 52.1135 1.3946C52.4438 1.57316 52.6804 1.84411 52.853 2.20199C53.2152 2.95292 53.267 4.01572 53.2646 5.16755V5.16856L53.2642 28.4021C53.2642 28.6934 53.271 28.9855 53.2778 29.2759C53.2971 30.1045 53.316 30.919 53.1758 31.6575C53.0842 32.1399 52.9299 32.5451 52.6879 32.8629C52.4515 33.1734 52.1116 33.4272 51.5973 33.5809C50.9395 33.7774 50.4418 33.7746 50.0652 33.6672C49.6931 33.5612 49.3971 33.3413 49.1579 33.0268C48.6616 32.3743 48.429 31.336 48.3862 30.2472L48.3585 29.5418L47.7023 29.802C47.3662 29.9353 47.0651 30.1967 46.7929 30.4554C46.6687 30.5734 46.5522 30.689 46.4325 30.8078C46.2565 30.9825 46.0734 31.1641 45.8486 31.3705C45.1399 32.0211 44.2 32.7337 42.7834 33.2043C39.3048 34.3601 36.1532 33.5982 33.841 31.5842C31.5172 29.5601 30.0044 26.2356 29.9204 22.2203C29.7844 15.72 32.5242 12.3545 35.7691 10.9686C39.0746 9.55672 42.9865 10.1556 45.2378 11.7616C45.5327 11.972 45.8606 12.2737 46.2135 12.5984C46.2834 12.6627 46.3542 12.7278 46.4259 12.7934C46.6355 12.9848 46.8508 13.1769 47.0577 13.3406C47.2603 13.5008 47.4799 13.6541 47.6985 13.7503ZM42.9236 29.8621C44.9601 29.421 46.3651 28.0539 47.1848 26.3313C48.0001 24.6178 48.2486 22.5358 47.9922 20.5755C47.736 18.6175 46.9684 16.726 45.6885 15.4208C44.3905 14.0972 42.5862 13.4021 40.3656 13.8432C38.3301 14.2475 36.9048 15.6139 36.0585 17.3443C35.2161 19.0667 34.9315 21.1732 35.163 23.157C35.3941 25.1379 36.1474 27.0544 37.4471 28.3637C38.7671 29.6934 40.6193 30.3611 42.9236 29.8621Z" fill="#212938" stroke="#212938"/>
<path d="M150.736 29.7697L150.586 29.5906H150.353H150.353H149.912L149.857 30.0271C149.682 31.3899 149.694 32.8648 149.739 34.2927C149.751 34.6646 149.765 35.0323 149.779 35.3945C149.819 36.438 149.857 37.4355 149.835 38.354C149.806 39.5977 149.667 40.6089 149.324 41.3204C149.156 41.6674 148.945 41.9306 148.684 42.1179C148.424 42.3043 148.088 42.4341 147.641 42.4761C146.889 42.5467 146.381 42.4526 146.032 42.2819C145.693 42.116 145.461 41.8568 145.296 41.5039C145.126 41.14 145.03 40.6799 144.979 40.1362C144.929 39.5939 144.927 39.0041 144.927 38.3856C144.927 38.3856 144.927 38.3855 144.927 38.3854L144.928 15.1521V15.1521C144.928 14.9227 144.924 14.6879 144.92 14.4506C144.906 13.5839 144.89 12.6839 145.064 11.895C145.172 11.4061 145.344 11.0083 145.602 10.7166C145.851 10.4343 146.207 10.2189 146.752 10.1358L146.752 10.1358C147.495 10.0224 148.007 10.0828 148.367 10.2257C148.718 10.3648 148.966 10.5986 149.158 10.9181C149.356 11.2482 149.492 11.6677 149.601 12.1628C149.68 12.5213 149.739 12.8914 149.801 13.2781C149.826 13.4304 149.85 13.5852 149.877 13.7429L150.078 14.9393L150.778 13.9485C153.263 10.4321 158.288 9.12614 162.424 11.0526C166.189 12.8058 168.198 17.1806 168.242 21.7091C168.286 26.2348 166.365 30.701 162.53 32.6245C160.228 33.7791 158.027 33.9396 156.04 33.3886C154.045 32.8354 152.23 31.5545 150.736 29.7697ZM155.133 13.8279L155.253 14.3134L155.133 13.8279C153.122 14.323 151.731 15.7151 150.918 17.4451C150.109 19.1675 149.861 21.2434 150.121 23.1915C150.381 25.137 151.156 27.0085 152.455 28.2908C153.773 29.5911 155.602 30.2543 157.856 29.7953C159.862 29.387 161.26 28.0005 162.085 26.2566C162.906 24.5193 163.177 22.3966 162.937 20.4043C162.697 18.4155 161.939 16.4958 160.632 15.2026C159.303 13.887 157.442 13.2595 155.133 13.8279Z" fill="#212938" stroke="#212938"/>
<path d="M83.7713 32.353L83.3315 32.1152C83.7937 31.2608 83.7274 30.4976 83.3697 29.9253C83.0024 29.3376 82.2823 28.8807 81.3141 28.7659C80.5261 28.6725 77.6723 28.6667 74.6133 28.6822C73.666 28.687 72.7032 28.6937 71.7851 28.7002C69.7684 28.7143 67.9668 28.727 67.0151 28.7141L66.5219 28.7074V28.2141V6.98429V6.48429H66.5275C66.5305 6.33625 66.5343 6.18916 66.5381 6.04298C66.5563 5.33966 66.5739 4.65732 66.4947 3.9917C66.3843 3.06435 66.0927 2.28937 65.4051 1.72667C64.7787 1.214 63.9245 1.03595 63.1146 1.17772C62.3041 1.31959 61.5952 1.77076 61.2294 2.44435L83.7713 32.353ZM83.7713 32.353L83.3315 32.1152C82.9783 32.7682 82.1865 33.0782 81.0789 33.1832C80.3381 33.2535 79.58 33.2256 78.8667 33.1993C78.5125 33.1863 78.1693 33.1737 77.8447 33.1737C77.2903 33.1737 76.3482 33.1797 75.2035 33.1871C73.7805 33.1962 72.0445 33.2073 70.3515 33.2113C67.2645 33.2186 64.3554 33.2017 63.6015 33.114C62.4206 32.9765 61.7644 32.6199 61.3771 32.1155C60.9759 31.593 60.7866 30.816 60.7625 29.6669C60.6699 25.2583 60.7016 20.2733 60.7322 15.451C60.747 13.1065 60.7617 10.8005 60.7617 8.61791C60.7617 8.27368 60.7522 7.89363 60.7422 7.48931M83.7713 32.353L60.7422 7.48931M60.7422 7.48931C60.7256 6.81709 60.7073 6.07778 60.7278 5.32446M60.7422 7.48931L60.7278 5.32446M60.7278 5.32446C60.7607 4.11555 60.8959 3.05866 61.2294 2.44437L60.7278 5.32446Z" fill="#212938" stroke="#212938"/>
<path d="M114.793 20.8922L114.809 20.908C116.508 22.5789 122.372 28.3403 122.389 28.3568L122.504 28.4786C122.506 28.4817 123.466 29.5804 126.454 29.8376V29.8478C126.459 29.8482 126.51 29.8509 126.604 29.8549C127.988 29.9178 129.712 29.3475 131.176 28.2143C132.625 27.093 133.759 25.4166 133.956 23.256H133.967C133.972 23.1927 133.979 23.0872 133.986 22.9382C134.09 20.7734 133.399 19.066 132.312 17.8441C131.02 16.391 129.182 15.5798 127.46 15.4801C125.77 15.3821 124.565 15.5689 123.641 15.9577C123.644 16.0839 123.677 16.35 123.878 16.6437C124.158 17.0521 124.363 17.0803 124.54 17.2215C124.716 17.3628 124.713 17.8135 124.432 18.0454C124.151 18.2773 123.771 18.4787 122.662 18.5262C121.71 18.567 120.48 18.5658 119.86 18.6107C119.702 18.6466 119.541 18.6683 119.379 18.6758C118.336 18.865 116.479 19.3225 116.197 19.1486C115.457 18.6913 117.011 15.5553 117.193 14.9523C117.354 14.417 117.801 12.4784 118.191 11.1285C118.378 10.4799 119.182 10.622 119.676 10.8059C120 10.9266 120.263 11.2645 120.493 11.5449L120.573 11.6545C120.831 11.5137 121.1 11.3812 121.382 11.2578C123.067 10.5192 125.1 10.15 127.773 10.3049C130.828 10.4819 134.075 11.9061 136.342 14.455C138.259 16.6119 139.484 19.5431 139.31 23.1613C139.303 23.3015 139.29 23.4822 139.27 23.7016L139.28 23.7025C138.938 27.4498 136.987 30.3451 134.496 32.2734C132.02 34.1897 128.948 35.1471 126.374 35.0301C126.29 35.0264 126.164 35.0171 125.995 35.0026L125.994 35.0127C121.509 34.6265 119.142 32.5355 118.611 32.0087L118.61 32.0096C118.592 31.9921 112.515 26.0211 110.938 24.4706L110.922 24.4549C109.223 22.7839 103.359 17.0226 103.342 17.0061L103.227 16.8844C103.225 16.8812 102.264 15.7826 99.2772 15.5254V15.5152C99.2715 15.5147 99.2209 15.512 99.1272 15.508C97.7427 15.4451 96.0189 16.0154 94.5547 17.1485C93.1058 18.2699 91.9716 19.9463 91.7748 22.1069H91.7643C91.7585 22.1701 91.752 22.2757 91.7449 22.4248C91.6408 24.5894 92.3321 26.2969 93.4185 27.5188C94.7106 28.9719 96.5489 29.7831 98.2709 29.8829C99.7922 29.9711 100.921 29.8284 101.805 29.5153C101.805 29.5126 101.849 29.1591 101.57 28.7523C101.29 28.3439 101.086 28.3157 100.909 28.1744C100.732 28.0332 100.736 27.5824 101.016 27.3505C101.297 27.1186 101.678 26.9172 102.786 26.8697C103.895 26.8222 105.38 26.8317 105.841 26.759L105.843 26.7587C105.924 26.7394 106.006 26.7239 106.088 26.7121C107.04 26.5037 108.273 25.9539 108.584 25.9721C109.869 26.0474 108.224 30.1417 108.042 30.7448C107.792 31.572 107.174 35.1119 105.772 34.59C105.448 34.4693 105.186 34.1314 104.956 33.851L104.937 33.8255C104.747 33.9231 104.551 34.0164 104.349 34.1051C102.664 34.8436 100.631 35.213 97.9578 35.058C94.9034 34.881 91.6557 33.4569 89.3894 30.908C87.4715 28.751 86.2472 25.8198 86.4212 22.2016C86.4279 22.0614 86.4415 21.8807 86.4615 21.6612L86.4511 21.6603C86.7927 17.913 88.744 15.0177 91.2353 13.0895C93.7114 11.1731 96.783 10.2158 99.3569 10.3328C99.4414 10.3364 99.5674 10.3457 99.7358 10.3603L99.7367 10.3501C104.222 10.7363 106.589 12.8274 107.12 13.3542L107.121 13.3533C107.139 13.3707 113.217 19.3418 114.793 20.8922L114.793 20.8922Z" fill="url(#paint0_linear)"/>
<defs>
<linearGradient id="paint0_linear" x1="86.4048" y1="10.27" x2="139.326" y2="10.27" gradientUnits="userSpaceOnUse">
<stop stop-color="#FF2917"/>
<stop offset="1" stop-color="#FFC617"/>
</linearGradient>
</defs>
</svg>
