<svg width="13" height="9" viewBox="0 0 13 9" fill="none" xmlns="http://www.w3.org/2000/svg">
<path d="M11.8172 0.824963L11.8158 0.823604C11.608 0.617651 11.3303 0.504435 11.0383 0.504435C10.7466 0.504435 10.4687 0.617568 10.2608 0.823604L10.2606 0.823751L6.50245 4.5515L2.73969 0.819359C2.73967 0.819341 2.73965 0.819323 2.73963 0.819305C2.73961 0.819276 2.73958 0.819248 2.73955 0.81922C2.53155 0.612823 2.25347 0.5 1.96202 0.5C1.67054 0.5 1.39238 0.612837 1.1843 0.81922L1.18422 0.819307L0.824031 1.17674C0.823993 1.17678 0.823956 1.17681 0.823918 1.17685C0.823881 1.17689 0.823844 1.17692 0.823807 1.17696C0.392135 1.60504 0.392064 2.30242 0.823596 2.73058C0.823741 2.73073 0.823886 2.73087 0.824031 2.73101L5.72268 7.60728L5.72332 7.60791C5.90452 7.78763 6.1754 7.94434 6.5021 7.94434H6.50398C6.83004 7.94434 7.1008 7.78692 7.28128 7.60805L7.28174 7.60759L12.176 2.74438C12.1761 2.74433 12.1761 2.74428 12.1762 2.74423C12.3874 2.5349 12.4997 2.25166 12.5 1.96335V1.96279C12.5 1.67218 12.3862 1.39188 12.1769 1.18419C12.1765 1.18386 12.1762 1.18353 12.1759 1.1832L11.8172 0.824963Z" fill="#BCBCBC" fill-opacity="0.9" stroke="#BCBCBC"/>
</svg>
