<svg width="12" height="20" viewBox="0 0 12 20" fill="none" xmlns="http://www.w3.org/2000/svg">
<path d="M1.69941 1.03956L1.09377 1.64595C0.904632 1.8368 0.800433 2.0907 0.800433 2.36206C0.800433 2.63328 0.904632 2.88748 1.09377 3.07833L7.95508 9.99562L1.08616 16.9209C0.897018 17.1114 0.792969 17.3656 0.792969 17.6369C0.792969 17.9081 0.897018 18.1624 1.08616 18.3531L1.68806 18.9597C2.07948 19.3546 2.71707 19.3546 3.10848 18.9597L11.3162 10.7143C11.5052 10.5238 11.6383 10.2698 11.6383 9.99622V9.99306C11.6383 9.7217 11.505 9.46779 11.3162 9.27725L3.13073 1.03956C2.94174 0.848717 2.68228 0.743963 2.41328 0.743664C2.14412 0.743664 1.88825 0.848717 1.69941 1.03956Z" fill="#354665"/>
</svg>
