<svg width="12" height="20" viewBox="0 0 12 20" fill="none" xmlns="http://www.w3.org/2000/svg">
<path d="M10.3006 1.03956L10.9062 1.64595C11.0954 1.8368 11.1996 2.0907 11.1996 2.36206C11.1996 2.63328 11.0954 2.88748 10.9062 3.07833L4.04492 9.99562L10.9138 16.9209C11.103 17.1114 11.207 17.3656 11.207 17.6369C11.207 17.9081 11.103 18.1624 10.9138 18.3531L10.3119 18.9597C9.92052 19.3546 9.28293 19.3546 8.89152 18.9597L0.683837 10.7143C0.494846 10.5238 0.361686 10.2698 0.361686 9.99622V9.99306C0.361686 9.7217 0.494995 9.46779 0.683837 9.27725L8.86927 1.03956C9.05826 0.848717 9.31772 0.743963 9.58672 0.743664C9.85588 0.743664 10.1117 0.848717 10.3006 1.03956Z" fill="#354665"/>
</svg>
