<svg width="45" height="60" viewBox="0 0 45 60" fill="none" xmlns="http://www.w3.org/2000/svg">
<path d="M28.3126 42.1628V40.3277H42.5924C43.2724 40.3277 43.8234 39.7765 43.8234 39.0967V19.901C43.8236 8.9275 34.896 0 23.9226 0H20.3938C9.42039 0 0.492893 8.9275 0.492893 19.901V39.0967C0.492893 39.7766 1.04403 40.3277 1.72383 40.3277H16.003V42.1626C11.7947 42.3147 7.86038 44.0244 4.86729 47.0173C1.72864 50.1561 0 54.3294 0 58.7686C0 59.4485 0.551136 59.9995 1.23094 59.9995C1.23094 59.9995 22.1545 60 22.1581 60C22.1617 60 43.0846 59.9995 43.0846 59.9995C43.7645 59.9995 44.3156 59.4484 44.3156 58.7686C44.3156 49.8114 37.1919 42.4879 28.3126 42.1628ZM2.95478 37.8657V19.901C2.95478 10.285 10.7778 2.46188 20.3938 2.46188H23.9226C33.5385 2.46188 41.3617 10.2849 41.3617 19.901V37.8658H30.4477C31.2961 37.3067 32.0893 36.6605 32.8208 35.929C35.669 33.0809 37.2375 29.2939 37.2375 25.266V16.9469C37.2375 16.617 37.1051 16.3008 36.8699 16.0694C36.6348 15.8381 36.3149 15.7097 35.9867 15.716C23.8644 15.9096 16.1385 11.7647 16.0635 11.7237C15.4933 11.4099 14.7775 11.594 14.4295 12.144C13.0445 14.3331 9.21238 16.2237 7.85359 16.767C7.38542 16.9536 7.07815 17.4066 7.07815 17.9107V25.2658C7.07815 28.3837 8.02198 31.3763 9.80758 33.9198C10.9134 35.4951 12.2899 36.8269 13.8686 37.8657H2.95478ZM30.7751 22.2193V23.9812C30.7751 24.7066 30.1849 25.2969 29.4594 25.2969H27.1667C26.4414 25.2969 25.8511 24.7067 25.8511 23.9812V22.2193H30.7751ZM24.6201 19.7574C23.9402 19.7574 23.3892 20.3086 23.3892 20.9884V21.7885H20.9272V20.9884C20.9272 20.3084 20.3761 19.7574 19.6963 19.7574H9.54027V18.718C10.967 18.0644 14.0116 16.504 15.8432 14.3585C18.2572 15.4709 25.0186 18.1204 34.7756 18.1841V19.7575H24.6201V19.7574ZM13.5413 22.2193H18.4653V23.9812C18.4653 24.7066 17.8751 25.2969 17.1496 25.2969H14.857C14.1316 25.2969 13.5413 24.7067 13.5413 23.9812V22.2193ZM9.54004 25.2661V22.2194H11.0792V23.9813C11.0792 26.0642 12.7738 27.759 14.8569 27.759H17.1495C19.1418 27.759 20.7778 26.2084 20.9165 24.2506H23.3999C23.5386 26.2083 25.1744 27.759 27.1669 27.759H29.4595C31.5424 27.759 33.2372 26.0644 33.2372 23.9813V22.2194H34.7755V25.2661C34.7755 28.6364 33.463 31.805 31.08 34.1882C29.8081 35.4601 28.3158 36.4269 26.6433 37.0622C25.2138 37.6073 23.7047 37.8838 22.1579 37.8838C20.611 37.8838 19.102 37.6074 17.6716 37.0619C12.8078 35.2118 9.54004 30.4716 9.54004 25.2661ZM22.1577 48.9432L18.4647 43.2364V39.8897L18.4576 39.8848C19.6604 40.1891 20.8986 40.3456 22.1577 40.3456C23.4166 40.3456 24.6547 40.1894 25.8571 39.8853L25.8506 39.8896V43.2363L22.1577 48.9432ZM6.608 48.7584C9.23558 46.1307 12.7147 44.6633 16.4234 44.6137L20.9271 51.5735V57.5379H2.51438C2.79821 54.2205 4.22662 51.1398 6.608 48.7584ZM23.3892 57.5376V51.5721L27.8921 44.6137C35.1951 44.7131 41.1806 50.3697 41.8006 57.5378L23.3892 57.5376Z" fill="url(#paint0_linear)"/>
<path d="M31.0146 47.5543C30.3628 47.3615 29.6778 47.7331 29.4846 48.3849C29.2916 49.0367 29.6634 49.7218 30.3152 49.915C32.6653 50.6111 34.6802 52.2557 35.8432 54.4269C36.0652 54.8413 36.4901 55.0768 36.9294 55.0768C37.1255 55.0768 37.3246 55.0299 37.5096 54.9307C38.1089 54.6099 38.3345 53.8637 38.0134 53.2643C36.542 50.5172 33.991 48.436 31.0146 47.5543Z" fill="url(#paint1_linear)"/>
<path d="M17.9058 34.0799C19.1957 34.9576 20.666 35.4215 22.1579 35.4215C23.6498 35.4215 25.1203 34.9576 26.4101 34.0799C26.9721 33.6974 27.1177 32.9318 26.7351 32.3696C26.3527 31.8076 25.5869 31.662 25.0249 32.0445C24.1325 32.6518 23.168 32.9597 22.1578 32.9597C21.1476 32.9597 20.183 32.6518 19.2906 32.0445C18.7287 31.6619 17.9629 31.8076 17.5804 32.3696C17.1981 32.9318 17.3438 33.6974 17.9058 34.0799Z" fill="url(#paint2_linear)"/>
<path d="M16.0034 22.4658C15.3235 22.4658 14.7725 23.017 14.7725 23.6968V23.8198C14.7725 24.4997 15.3236 25.0508 16.0034 25.0508C16.6833 25.0508 17.2343 24.4996 17.2343 23.8198V23.6968C17.2343 23.017 16.6832 22.4658 16.0034 22.4658Z" fill="url(#paint3_linear)"/>
<path d="M28.313 22.4658C27.633 22.4658 27.082 23.017 27.082 23.6968V23.8198C27.082 24.4997 27.6332 25.0508 28.313 25.0508C28.9929 25.0508 29.5439 24.4996 29.5439 23.8198V23.6968C29.5439 23.017 28.9928 22.4658 28.313 22.4658Z" fill="url(#paint4_linear)"/>
<defs>
<linearGradient id="paint0_linear" x1="0" y1="0" x2="55.3163" y2="12.9272" gradientUnits="userSpaceOnUse">
<stop stop-color="#5123F7"/>
<stop offset="1" stop-color="#18C9FD"/>
</linearGradient>
<linearGradient id="paint1_linear" x1="29.4336" y1="47.5034" x2="39.573" y2="51.1998" gradientUnits="userSpaceOnUse">
<stop stop-color="#5123F7"/>
<stop offset="1" stop-color="#18C9FD"/>
</linearGradient>
<linearGradient id="paint2_linear" x1="17.3672" y1="31.8311" x2="24.7307" y2="38.0484" gradientUnits="userSpaceOnUse">
<stop stop-color="#5123F7"/>
<stop offset="1" stop-color="#18C9FD"/>
</linearGradient>
<linearGradient id="paint3_linear" x1="14.7725" y1="22.4658" x2="17.7435" y2="23.3611" gradientUnits="userSpaceOnUse">
<stop stop-color="#5123F7"/>
<stop offset="1" stop-color="#18C9FD"/>
</linearGradient>
<linearGradient id="paint4_linear" x1="27.082" y1="22.4658" x2="30.0531" y2="23.3611" gradientUnits="userSpaceOnUse">
<stop stop-color="#5123F7"/>
<stop offset="1" stop-color="#18C9FD"/>
</linearGradient>
</defs>
</svg>
