<svg width="25" height="16" viewBox="0 0 25 16" fill="none" xmlns="http://www.w3.org/2000/svg">
<path d="M24.4268 1.5158C24.6015 0.92976 24.4268 0.5 23.6009 0.5H20.8649C20.1687 0.5 19.8506 0.871787 19.6759 1.28012C19.6759 1.28012 18.2849 4.70686 16.3136 6.92875C15.6774 7.57528 15.3867 7.77945 15.0398 7.77945C14.8664 7.77945 14.6144 7.57528 14.6144 6.98925V1.5158C14.6144 0.812553 14.4135 0.5 13.8334 0.5H9.53417C9.10001 0.5 8.83801 0.825156 8.83801 1.13519C8.83801 1.80062 9.82362 1.95438 9.92467 3.82969V7.89792C9.92467 8.78894 9.76623 8.95152 9.4169 8.95152C8.48993 8.95152 6.23427 5.51218 4.89559 1.57503C4.63484 0.810032 4.3716 0.501261 3.67294 0.501261H0.938197C0.15595 0.501261 0 0.873047 0 1.28138C0 2.01487 0.926968 5.64451 4.31795 10.445C6.5786 13.723 9.76124 15.5 12.6607 15.5C14.3986 15.5 14.6132 15.1055 14.6132 14.425V11.9472C14.6132 11.1583 14.7791 10.9995 15.3293 10.9995C15.7335 10.9995 16.4297 11.2062 18.0528 12.7853C19.9067 14.6581 20.2136 15.4987 21.2554 15.4987H23.9901C24.7711 15.4987 25.1616 15.1043 24.9371 14.3254C24.6913 13.5503 23.8055 12.4224 22.6303 11.0877C21.9915 10.3265 21.0371 9.50731 20.7464 9.09771C20.3409 8.56965 20.4582 8.3365 20.7464 7.86767C20.7464 7.86767 24.08 3.12771 24.4268 1.5158Z" fill="#354665"/>
</svg>
